<mxfile host="65bd71144e">
    <diagram id="ElBVJfynR_MdpWszxlVL" name="Page-1">
        <mxGraphModel dx="2619" dy="1741" grid="1" gridSize="10" guides="1" tooltips="1" connect="1" arrows="1" fold="1" page="1" pageScale="1" pageWidth="827" pageHeight="1169" math="0" shadow="0">
            <root>
                <mxCell id="0"/>
                <mxCell id="1" parent="0"/>
                <mxCell id="2" value="users" style="shape=swimlane;childLayout=stackLayout;" parent="1" vertex="1">
                    <mxGeometry x="460" y="-40" width="160" height="100" as="geometry"/>
                </mxCell>
                <mxCell id="3" value="invoices" style="shape=swimlane;childLayout=stackLayout;" parent="1" vertex="1">
                    <mxGeometry x="210" y="-40" width="160" height="100" as="geometry"/>
                </mxCell>
                <mxCell id="4" value="expenses" style="shape=swimlane;childLayout=stackLayout;" parent="1" vertex="1">
                    <mxGeometry x="460" y="-200" width="160" height="100" as="geometry"/>
                </mxCell>
                <mxCell id="5" value="income" style="shape=swimlane;childLayout=stackLayout;" parent="1" vertex="1">
                    <mxGeometry x="780" y="-40" width="160" height="100" as="geometry"/>
                </mxCell>
                <mxCell id="6" value="bank_transactions" style="shape=swimlane;childLayout=stackLayout;" parent="1" vertex="1">
                    <mxGeometry x="1081" y="-40" width="160" height="100" as="geometry"/>
                </mxCell>
                <mxCell id="7" value="recurring_expenses" style="shape=swimlane;childLayout=stackLayout;" parent="1" vertex="1">
                    <mxGeometry x="750" y="-200" width="160" height="100" as="geometry"/>
                </mxCell>
                <mxCell id="8" value="ledger_accounts" style="shape=swimlane;childLayout=stackLayout;" parent="1" vertex="1">
                    <mxGeometry x="-50" y="180" width="160" height="100" as="geometry"/>
                </mxCell>
                <mxCell id="9" value="journal_entries" style="shape=swimlane;childLayout=stackLayout;" parent="1" vertex="1">
                    <mxGeometry x="410" y="190" width="160" height="100" as="geometry"/>
                </mxCell>
                <mxCell id="10" value="journal_lines" style="shape=swimlane;childLayout=stackLayout;" parent="1" vertex="1">
                    <mxGeometry x="160" y="190" width="160" height="100" as="geometry"/>
                </mxCell>
                <mxCell id="11" value="cbms_sync_log" style="shape=swimlane;childLayout=stackLayout;" parent="1" vertex="1">
                    <mxGeometry x="-20" y="-40" width="160" height="100" as="geometry"/>
                </mxCell>
                <mxCell id="12" value="audit_logs" style="shape=swimlane;childLayout=stackLayout;" parent="1" vertex="1">
                    <mxGeometry x="610" y="200" width="160" height="100" as="geometry"/>
                </mxCell>
                <mxCell id="13" value="reports_metadata" style="shape=swimlane;childLayout=stackLayout;" parent="1" vertex="1">
                    <mxGeometry x="827" y="200" width="160" height="100" as="geometry"/>
                </mxCell>
                <mxCell id="14" value="api_tokens" style="shape=swimlane;childLayout=stackLayout;" parent="1" vertex="1">
                    <mxGeometry x="1060" y="190" width="160" height="100" as="geometry"/>
                </mxCell>
                <mxCell id="15" style="endArrow=block;" parent="1" source="3" target="2" edge="1">
                    <mxGeometry relative="1" as="geometry"/>
                </mxCell>
                <mxCell id="16" style="endArrow=block;" parent="1" source="4" target="2" edge="1">
                    <mxGeometry relative="1" as="geometry"/>
                </mxCell>
                <mxCell id="17" style="endArrow=block;" parent="1" source="5" target="2" edge="1">
                    <mxGeometry relative="1" as="geometry"/>
                </mxCell>
                <mxCell id="18" style="endArrow=block;" parent="1" source="5" target="6" edge="1">
                    <mxGeometry relative="1" as="geometry"/>
                </mxCell>
                <mxCell id="19" style="endArrow=block;" parent="1" source="7" target="4" edge="1">
                    <mxGeometry relative="1" as="geometry"/>
                </mxCell>
                <mxCell id="20" style="endArrow=block;" parent="1" source="9" target="2" edge="1">
                    <mxGeometry relative="1" as="geometry"/>
                </mxCell>
                <mxCell id="21" style="endArrow=block;" parent="1" source="10" target="9" edge="1">
                    <mxGeometry relative="1" as="geometry"/>
                </mxCell>
                <mxCell id="22" style="endArrow=block;" parent="1" source="10" target="8" edge="1">
                    <mxGeometry relative="1" as="geometry"/>
                </mxCell>
                <mxCell id="23" style="endArrow=block;" parent="1" source="11" target="3" edge="1">
                    <mxGeometry relative="1" as="geometry"/>
                </mxCell>
                <mxCell id="24" style="endArrow=block;" parent="1" source="12" target="2" edge="1">
                    <mxGeometry relative="1" as="geometry"/>
                </mxCell>
                <mxCell id="25" style="endArrow=block;" parent="1" source="13" target="2" edge="1">
                    <mxGeometry relative="1" as="geometry"/>
                </mxCell>
                <mxCell id="26" style="endArrow=block;" parent="1" source="14" target="2" edge="1">
                    <mxGeometry relative="1" as="geometry"/>
                </mxCell>
            </root>
        </mxGraphModel>
    </diagram>
</mxfile>